<?xml version='1.0' encoding='iso-8859-1'?>
<svg version="1.1" xmlns="http://www.w3.org/2000/svg" viewBox="0 0 463 463" xmlns:xlink="http://www.w3.org/1999/xlink" enable-background="new 0 0 463 463" fill="#777" width="50px">
  <g>
    <path d="m423.5,128h-384c-21.78,0-39.5,17.72-39.5,39.5v128c0,21.78 17.72,39.5 39.5,39.5h384c21.78,0 39.5-17.72 39.5-39.5v-128c0-21.78-17.72-39.5-39.5-39.5zm-408.5,167.5v-128c0-13.509 10.991-24.5 24.5-24.5h280.5v177h-280.5c-13.509,0-24.5-10.991-24.5-24.5zm433,0c0,13.509-10.991,24.5-24.5,24.5h-88.5v-177h88.5c13.509,0 24.5,10.991 24.5,24.5v128z"/>
    <path d="m423.5,224h-24.5v-24.5c0-4.142-3.358-7.5-7.5-7.5s-7.5,3.358-7.5,7.5v24.5h-24.5c-4.142,0-7.5,3.358-7.5,7.5s3.358,7.5 7.5,7.5h24.5v24.5c0,4.142 3.358,7.5 7.5,7.5s7.5-3.358 7.5-7.5v-24.5h24.5c4.142,0 7.5-3.358 7.5-7.5s-3.358-7.5-7.5-7.5z"/>
    <path d="M96.976,196.984c-2.33-7.766-9.343-12.984-17.5-12.984c-8.108,0-15.122,5.218-17.452,12.984l-21.708,72.36   c-1.19,3.968,1.061,8.149,5.028,9.339c3.969,1.193,8.149-1.061,9.339-5.028L60.28,255h38.44l5.597,18.655   c0.975,3.249,3.955,5.347,7.181,5.347c0.713,0,1.439-0.103,2.158-0.318c3.967-1.19,6.219-5.371,5.028-9.339L96.976,196.984z    M64.78,240l11.611-38.705c0.405-1.351,1.674-2.295,3.132-2.295c1.411,0,2.679,0.944,3.084,2.295L94.22,240H64.78z"/>
    <path d="m167.5,184h-24c-4.142,0-7.5,3.358-7.5,7.5v80c0,4.142 3.358,7.5 7.5,7.5h24c21.78,0 39.5-17.72 39.5-39.5v-16c0-21.78-17.72-39.5-39.5-39.5zm24.5,55.5c0,13.509-10.991,24.5-24.5,24.5h-16.5v-65h16.5c13.509,0 24.5,10.991 24.5,24.5v16z"/>
    <path d="m255.5,184h-24c-4.142,0-7.5,3.358-7.5,7.5v80c0,4.142 3.358,7.5 7.5,7.5h24c21.78,0 39.5-17.72 39.5-39.5v-16c0-21.78-17.72-39.5-39.5-39.5zm24.5,55.5c0,13.509-10.991,24.5-24.5,24.5h-16.5v-65h16.5c13.509,0 24.5,10.991 24.5,24.5v16z"/>
  </g>
</svg>
